<svg width="29" height="29" viewBox="0 0 29 29" fill="none" xmlns="http://www.w3.org/2000/svg">
<circle cx="14.5" cy="14.5" r="14" stroke="black"/>
<path d="M15.0833 13.0417C15.8475 12.2608 16.8425 11.75 18 11.75C19.2156 11.75 20.3814 12.2329 21.2409 13.0924C22.1004 13.952 22.5833 15.1178 22.5833 16.3333V22.5833H20.9167V16.3333C20.9167 15.5598 20.6094 14.8179 20.0624 14.2709C19.5154 13.724 18.7735 13.4167 18 13.4167C17.2265 13.4167 16.4846 13.724 15.9376 14.2709C15.3906 14.8179 15.0833 15.5598 15.0833 16.3333V22.5833H13.4167V12.1667H15.0833V13.0417ZM9.25 10.5C8.91848 10.5 8.60054 10.3683 8.36612 10.1339C8.1317 9.89946 8 9.58152 8 9.25C8 8.91848 8.1317 8.60054 8.36612 8.36612C8.60054 8.1317 8.91848 8 9.25 8C9.58152 8 9.89946 8.1317 10.1339 8.36612C10.3683 8.60054 10.5 8.91848 10.5 9.25C10.5 9.58152 10.3683 9.89946 10.1339 10.1339C9.89946 10.3683 9.58152 10.5 9.25 10.5ZM8.41667 12.1667H10.0833V22.5833H8.41667V12.1667Z" fill="black"/>
</svg>
