<svg width="29" height="29" viewBox="0 0 29 29" fill="none" xmlns="http://www.w3.org/2000/svg">
<circle cx="14.5" cy="14.5" r="14" stroke="black"/>
<path d="M17.2268 17.6985C18.2284 17.4904 19.1371 17.1295 19.8436 16.5996C21.0501 15.6948 21.6666 14.2973 21.6666 12.9166C21.6666 11.948 21.2994 11.0437 20.6637 10.2778C20.3094 9.85104 21.3456 6.66661 20.425 7.09549C19.5044 7.52436 18.1545 8.47366 17.4469 8.26415C16.6894 8.03985 15.8639 7.91661 15 7.91661C14.2496 7.91661 13.5283 8.00958 12.8552 8.18099C11.8769 8.43015 10.9413 7.49995 9.99998 7.09549C9.05867 6.69103 9.57231 9.98466 9.29273 10.331C8.68381 11.0855 8.33331 11.9703 8.33331 12.9166C8.33331 14.2973 9.0795 15.6948 10.2859 16.5996C11.0896 17.2024 12.0975 17.5865 13.225 17.7758" stroke="black" stroke-linecap="round"/>
<path d="M13.2249 17.7758C12.7422 18.3071 12.5009 18.8116 12.5009 19.2893C12.5009 19.7671 12.5009 20.9777 12.5009 22.9211" stroke="black" stroke-linecap="round"/>
<path d="M17.2269 17.6986C17.6843 18.2989 17.913 18.8379 17.913 19.3157C17.913 19.7934 17.913 20.9952 17.913 22.9211" stroke="black" stroke-linecap="round"/>
<path d="M7.5 18.0065C7.87453 18.0522 8.15231 18.2245 8.33333 18.5231C8.60487 18.971 9.61425 20.6325 10.7605 20.6325C11.5246 20.6325 12.1048 20.6325 12.501 20.6325" stroke="black" stroke-linecap="round"/>
</svg>
