<svg width="29" height="29" viewBox="0 0 29 29" fill="none" xmlns="http://www.w3.org/2000/svg">
<circle cx="14.5" cy="14.5" r="14" stroke="black"/>
<path d="M20.4538 8.60332C18.8638 7.04473 16.7464 6.1875 14.4962 6.1875C9.85156 6.1875 6.0721 9.88359 6.0721 14.4258C6.0721 15.8768 6.45915 17.2943 7.19531 18.5449L6 22.8125L10.4663 21.6658C11.6958 22.3227 13.0808 22.6678 14.4924 22.6678H14.4962C19.1371 22.6678 23 18.9717 23 14.4295C23 12.2289 22.0438 10.1619 20.4538 8.60332V8.60332ZM14.4962 21.2799C13.2364 21.2799 12.0031 20.9496 10.9292 20.3262L10.675 20.1777L8.02634 20.8568L8.73214 18.3297L8.56518 18.0699C7.86317 16.9789 7.49509 15.7209 7.49509 14.4258C7.49509 10.6518 10.6371 7.5791 14.5 7.5791C16.3708 7.5791 18.1277 8.2916 19.4482 9.58672C20.7687 10.8818 21.5808 12.6 21.577 14.4295C21.577 18.2072 18.3554 21.2799 14.4962 21.2799V21.2799ZM18.3364 16.1514C18.1277 16.0475 17.0917 15.5502 16.8982 15.4834C16.7047 15.4129 16.5643 15.3795 16.4239 15.5873C16.2835 15.7951 15.8813 16.2553 15.756 16.3963C15.6346 16.5336 15.5094 16.5521 15.3007 16.4482C14.0636 15.8434 13.2516 15.3684 12.4357 13.999C12.2194 13.6354 12.652 13.6613 13.0542 12.8746C13.1225 12.7373 13.0884 12.6186 13.0353 12.5146C12.9821 12.4107 12.5609 11.3977 12.3864 10.9857C12.2156 10.585 12.0411 10.6406 11.9121 10.6332C11.7906 10.6258 11.6502 10.6258 11.5098 10.6258C11.3694 10.6258 11.1417 10.6777 10.9482 10.8818C10.7547 11.0896 10.2121 11.5869 10.2121 12.6C10.2121 13.6131 10.9672 14.5928 11.0696 14.7301C11.1759 14.8674 12.5533 16.9455 14.667 17.8398C16.0027 18.4039 16.5263 18.4521 17.1942 18.3557C17.6002 18.2963 18.4388 17.8584 18.6134 17.376C18.7879 16.8936 18.7879 16.4816 18.7348 16.3963C18.6855 16.3035 18.5451 16.2516 18.3364 16.1514Z" fill="black"/>
</svg>
