<svg width="29" height="29" viewBox="0 0 29 29" fill="none" xmlns="http://www.w3.org/2000/svg">
<circle cx="14.5" cy="14.5" r="14" stroke="black"/>
<path d="M23 9.1875V19.8125C23 20.4155 22.5405 20.875 21.9375 20.875H20.875V11.2323L14.5 15.8117L8.125 11.2323V20.875H7.0625C6.45953 20.875 6 20.4155 6 19.8125V9.1875C6 8.88575 6.11369 8.62012 6.30441 8.43206C6.40374 8.33268 6.52203 8.25428 6.65227 8.20153C6.7825 8.14878 6.92201 8.12275 7.0625 8.125H7.41684L14.5 13.2606L21.5832 8.125H21.9375C22.2393 8.125 22.5049 8.23868 22.6956 8.43206C22.8863 8.62012 23 8.88575 23 9.1875Z" fill="black"/>
</svg>
