<svg width="176" height="135" viewBox="0 0 176 135" fill="none" xmlns="http://www.w3.org/2000/svg">
<path fill-rule="evenodd" clip-rule="evenodd" d="M132.854 34.8473C132.899 35.723 132.962 36.0711 133.57 36.636C133.772 36.8241 133.937 36.813 134.063 36.8046C134.234 36.793 134.333 36.7863 134.359 37.2833C134.376 37.5963 134.182 37.8117 133.987 38.0282C133.872 38.1565 133.756 38.2854 133.683 38.4353C132.737 40.3774 133.337 42.8669 133.812 44.8382L133.812 44.8389C133.829 44.9057 133.844 44.9719 133.86 45.0375C134.1 46.0347 134.424 47.0534 134.752 48.0838C135.759 51.2449 136.802 54.5174 135.537 57.6266C135.483 57.7605 135.432 57.9449 135.377 58.1441C135.261 58.5628 135.127 59.046 134.906 59.2619C134.475 59.0292 134.161 59.1309 133.963 59.5669C133.844 59.7036 133.725 59.8404 133.606 59.977C132.852 60.6896 132.05 60.9545 131.05 60.5757C129.034 59.8123 128.7 57.4171 128.69 55.5315C128.678 53.4532 129.111 51.2767 129.574 49.252C129.592 49.172 129.611 49.091 129.63 49.0093C129.846 48.0929 130.087 47.0701 129.501 46.2258C129.135 45.6988 128.717 45.6717 128.312 45.6453C128.049 45.6283 127.792 45.6116 127.558 45.459C127.245 45.2542 127.311 44.4045 127.381 43.5019C127.452 42.5852 127.528 41.6138 127.214 41.2085C126.126 39.804 125.747 43.2398 125.73 43.9415C125.711 44.7102 125.751 45.607 126.106 46.3038C126.233 46.5545 126.492 46.7911 126.75 47.027C127.056 47.3063 127.361 47.5846 127.445 47.8843C127.54 48.2204 127.303 48.9063 127.098 49.4969C126.989 49.8137 126.889 50.103 126.854 50.2965C126.703 51.1505 126.65 52.0229 126.607 52.8884C126.46 55.8124 126.908 58.8896 128.876 61.1586C129.739 62.1537 131.202 63.2836 132.57 63.1024C133.466 62.9835 134.366 62.5856 135.23 62.2029C135.531 62.07 135.827 61.939 136.117 61.8223C136.875 64.7983 138.012 67.6804 139.225 70.4908C139.608 71.3794 139.983 72.2757 140.358 73.1727L140.358 73.1729C141.014 74.7421 141.671 76.3135 142.376 77.849C143.882 81.1338 145.995 84.1044 148.1 87.0633C149.254 88.6861 150.405 90.3052 151.453 91.9709C154.309 96.5112 155.911 101.721 156.295 107.081C156.332 107.597 156.294 108.191 156.255 108.793C156.199 109.67 156.142 110.566 156.313 111.268C156.362 111.468 156.409 111.648 156.454 111.815C156.656 112.577 156.789 113.08 156.644 114.074C156.592 114.429 156.527 114.777 156.463 115.122C156.283 116.084 156.109 117.023 156.229 118.032C156.262 118.309 156.318 118.618 156.376 118.942V118.942C156.571 120.039 156.8 121.315 156.322 122.185C156.094 121.936 155.866 121.728 155.646 121.527C155.15 121.074 154.698 120.661 154.385 119.912C154.244 119.574 154.164 119.255 154.09 118.961C153.923 118.3 153.788 117.765 153.07 117.432C152.738 117.278 152.442 117.194 152.16 117.114L152.16 117.114C151.687 116.98 151.254 116.857 150.764 116.435C149.813 115.616 149.166 114.615 148.697 113.443C147.898 111.442 147.782 109.273 148.458 107.219C149 105.571 150.583 102.487 152.802 103.591C152.735 103.452 152.673 103.31 152.612 103.168C152.367 102.608 152.126 102.055 151.624 101.696C151.36 101.508 151.034 101.38 150.698 101.249H150.698C150.336 101.108 149.963 100.962 149.646 100.731C148.962 100.233 148.188 99.7016 147.425 99.3374C147.192 99.2263 146.969 99.1586 146.736 99.0878L146.732 99.0865L146.686 99.0727L146.645 99.0602L146.618 99.0517C146.593 99.044 146.568 99.0363 146.542 99.0284C146.253 98.9369 145.758 98.9693 145.54 98.9837C145.482 98.9876 145.443 98.99 145.434 98.9886C144.123 98.786 142.661 98.1407 141.861 97.1682C141.258 96.4363 140.726 95.753 140.266 94.9154C139.733 93.9444 139.492 93.8933 138.631 93.7094C138.528 93.6872 138.416 93.6635 138.294 93.6359C136.629 93.261 135.572 93.0052 134.241 91.742C132.804 90.3785 131.741 88.6886 130.689 87.0146L130.602 86.8762C130.067 86.0242 129.586 85.8488 128.826 85.5716H128.826C128.687 85.521 128.54 85.4672 128.381 85.4053C128.105 85.2981 127.781 85.0195 127.458 84.7419H127.458C127.078 84.415 126.699 84.0894 126.404 84.0474C126.317 84.0349 126.048 84.1362 125.782 84.2365C125.565 84.3183 125.35 84.3995 125.235 84.4185C124.779 84.4941 124.383 84.4805 123.925 84.4315C122.876 84.3188 121.948 84.0346 121.243 83.1947C119.07 80.6084 118.407 74.5118 121.382 72.3115C121.561 72.179 121.763 72.069 121.965 71.9587C122.403 71.72 122.844 71.4792 123.073 71.0032C123.392 70.3396 123.325 69.189 123.276 68.3355C123.266 68.1613 123.256 67.9996 123.251 67.8569C123.216 66.8955 123.172 65.8493 123.032 64.9017C122.967 64.4661 122.919 64.2829 122.745 63.8468C122.457 63.1226 122.339 63.093 121.891 62.9805C121.804 62.9586 121.705 62.9336 121.589 62.8999C121.376 62.8375 121.187 62.7933 121.017 62.7534C120.376 62.6037 119.988 62.513 119.498 61.7367C119.002 60.9524 118.77 59.9643 118.725 59.0369C118.709 58.7055 118.755 58.384 118.8 58.0692C118.873 57.5617 118.943 57.072 118.746 56.5884C118.541 56.0832 118.258 55.6322 117.974 55.1785C117.612 54.6019 117.248 54.0208 117.036 53.3186C117.011 53.2363 116.983 53.1463 116.953 53.0496C116.598 51.903 115.954 49.8265 116.704 48.9272C116.864 48.7356 117.078 48.6157 117.299 48.4921C117.582 48.3339 117.875 48.1697 118.078 47.8414C118.175 47.6846 118.263 47.5389 118.346 47.4014C118.802 46.6457 119.106 46.1426 119.897 45.4636C120.114 45.2769 120.329 45.0612 120.547 44.8424C121.021 44.3667 121.511 43.8747 122.08 43.6269C122.546 43.4235 122.998 43.523 123.423 43.6167C123.743 43.6871 124.047 43.7541 124.332 43.6868C124.832 43.5683 124.896 42.7138 124.953 41.9418C124.979 41.5955 125.004 41.2659 125.066 41.0267C125.337 39.9848 125.917 38.8987 126.62 38.0857C126.715 37.9764 126.819 37.9025 126.921 37.8299C127.073 37.722 127.221 37.6165 127.331 37.4009C127.465 37.1349 127.498 36.8074 127.53 36.478C127.558 36.202 127.585 35.9245 127.673 35.6808C127.904 35.0421 128.463 33.9424 129.088 33.5922C130.116 33.017 130.739 33.5984 131.335 34.154C131.799 34.5868 132.246 35.0041 132.854 34.8473ZM156.51 86.8168C158.53 88.0007 158.088 91.2057 157.821 93.145C157.812 93.2121 157.803 93.2779 157.794 93.3418C157.699 94.0372 157.781 94.7396 157.862 95.4296C157.921 95.9283 157.978 96.4205 157.968 96.8986C157.95 97.6966 157.693 97.897 157.4 98.1247C157.221 98.2641 157.028 98.4138 156.87 98.7169C156.752 98.4027 156.603 98.0681 156.449 97.7242C156.13 97.0083 155.793 96.2537 155.691 95.5676L155.451 94.9253C155.654 94.8418 155.762 94.6966 155.775 94.4897C155.84 94.1176 155.855 93.7398 155.87 93.3608V93.3606C155.875 93.2387 155.88 93.1165 155.886 92.9943C155.997 90.9211 156.15 88.8613 156.51 86.8168ZM116.033 59.8574V59.8573V59.8571L116.033 59.8557C116.049 59.8007 116.064 59.7458 116.08 59.6922C116.046 58.8446 115.86 57.0924 114.921 56.6881C113.742 56.1797 113.394 57.5957 113.426 58.5419C113.45 59.2965 113.762 60.678 114.49 61.0976C115.514 61.6877 115.789 60.7168 116.033 59.8574ZM114.591 84.1158V84.116C114.613 85.6634 114.634 87.1932 115.096 88.6891C115.639 90.4481 116.55 92.1434 117.45 93.7338C119.202 96.8251 119.62 99.7408 119.831 103.276C116.537 101.767 114.741 96.6098 113.654 93.3838C113.5 92.9282 113.345 92.4726 113.19 92.0166L113.19 92.0163V92.0161C112.764 90.7631 112.337 89.5082 111.939 88.2484C111.863 88.0072 111.778 87.7557 111.691 87.4962V87.496C111.166 85.9321 110.546 84.0854 111.08 82.5541C111.12 82.5838 111.158 82.613 111.196 82.6417L111.199 82.6438C112.312 83.4828 112.818 83.8641 113.482 82.3355C113.744 82.6301 114.007 82.9247 114.27 83.2191L114.582 83.5694C114.586 83.7514 114.588 83.9331 114.591 84.1147V84.1149V84.1151V84.1152V84.1154V84.1156V84.1158ZM109.83 66.6688C109.65 67.5092 109.509 68.3507 109.376 69.1995C109.417 69.2865 109.457 69.3749 109.498 69.4641H109.498C109.945 70.4416 110.431 71.5054 111.563 71.7685C111.744 71.8106 111.914 71.7881 112.082 71.7657C112.288 71.7385 112.49 71.7116 112.706 71.8025C112.995 71.9243 113.205 72.1985 113.411 72.468C113.546 72.645 113.68 72.8199 113.834 72.9482C115.629 74.4473 117.636 71.6395 116.657 70.0629C115.47 71.3588 114.136 70.9325 113.708 69.1714C113.299 67.4943 113.899 65.4019 114.764 63.9855C113.168 63.2484 112.192 63.2975 110.773 64.2889C110.728 64.3205 110.687 64.3488 110.649 64.3745L110.649 64.3748C110.476 64.4937 110.383 64.5584 110.32 64.6464C110.245 64.7517 110.216 64.8904 110.151 65.1949V65.195L110.15 65.1959C110.142 65.2372 110.132 65.2815 110.122 65.3292C110.082 65.5125 110.042 65.6958 110.002 65.8792V65.8794V65.8797C109.944 66.1427 109.886 66.4056 109.83 66.6688ZM135.984 99.9004L135.984 99.9006C135.751 100.078 135.518 100.255 135.315 100.465C135.231 100.551 135.096 100.758 134.96 100.966C134.794 101.22 134.627 101.477 134.549 101.521C133.979 101.843 133.481 101.429 132.924 100.91C131.829 99.8862 131.144 97.7139 131.196 96.2116C131.256 94.457 132.469 93.2529 134.007 94.5039C135.243 95.5099 135.601 96.926 135.963 98.3586C136.071 98.7889 136.181 99.2207 136.314 99.6432C136.206 99.7313 136.095 99.8159 135.984 99.9004ZM128.381 118.775C129.621 118.613 130.436 118.81 131.655 119.118C132.017 117.582 131.637 115.583 130.641 114.339C130.419 114.062 130.086 113.846 129.773 113.644C129.432 113.423 129.114 113.217 128.991 112.962C128.835 112.641 128.8 112.173 128.765 111.699C128.733 111.27 128.701 110.836 128.579 110.499C128.373 113.282 128.256 115.991 128.381 118.775ZM110.455 116.316C110.846 115.518 111.237 114.721 111.628 113.924C111.882 114.336 112.629 115.414 113.246 115.069C113.528 114.911 113.5 114.225 113.475 113.594C113.458 113.187 113.442 112.803 113.511 112.597C114.341 113.543 114.752 114.658 114.632 115.922C114.589 116.373 114.455 117.004 114.325 117.436C114.276 117.601 114.158 117.816 114.037 118.037C113.809 118.452 113.57 118.888 113.75 119.054C113.603 119.045 113.452 119.041 113.3 119.037H113.3C112.645 119.019 111.961 119.001 111.509 118.586C111.046 118.162 110.712 117.118 110.504 116.467C110.487 116.414 110.47 116.363 110.455 116.316ZM126.703 110.848C126.792 109.711 126.773 108.614 126.735 107.473C125.416 106.563 123.722 106.385 123.673 108.476C123.626 110.434 124.979 111.943 126.202 113.308L126.203 113.308L126.203 113.309L126.204 113.31C126.362 113.485 126.517 113.659 126.667 113.831C126.79 113.296 126.755 112.688 126.721 112.084C126.697 111.661 126.673 111.24 126.703 110.848ZM124.659 89.1053C124.629 89.221 124.601 89.3497 124.57 89.4852C124.366 90.4065 124.091 91.6383 122.958 91.1822C121.932 90.7691 121.685 89.1018 121.683 88.1725C121.681 87.4096 121.804 86.0079 122.847 85.9622C124.128 85.9059 124.585 88.2241 124.659 89.1053ZM115.446 68.3225C115.775 67.7263 116.165 67.0195 116.534 67.1103C116.361 66.7169 116.188 66.3236 116.015 65.9302C115.842 65.5368 115.67 65.1434 115.496 64.75C115.446 65.0096 115.391 65.2706 115.336 65.5327C115.092 66.6888 114.843 67.8674 114.983 69.0446C115.112 68.927 115.27 68.6405 115.446 68.3225ZM141.907 120.368C143.74 118.594 144.962 119.241 146.959 120.298C147.056 120.349 147.154 120.401 147.255 120.455C147.75 120.715 148.227 120.829 148.704 120.943C149.076 121.032 149.447 121.121 149.827 121.279C150.26 121.459 150.532 121.926 150.789 122.367C151.043 122.801 151.282 123.211 151.647 123.3C150.753 123.396 149.863 123.52 148.974 123.644H148.974C146.47 123.994 143.973 124.343 141.426 124.057C141.546 123.559 141.532 123.056 141.518 122.558C141.497 121.809 141.476 121.07 141.907 120.368ZM141.064 114.354C143.276 114.237 143.865 110.754 143.849 109.014C143.897 107.752 143.573 106.125 142.624 105.223C142.024 104.653 140.636 103.755 139.803 103.889C137.542 104.252 136.971 108.471 137.19 110.235C137.39 111.844 139.286 114.448 141.064 114.354Z" fill="#1ABCFE"/>
<path fill-rule="evenodd" clip-rule="evenodd" d="M107.892 36.1906C107.505 36.3683 108.243 37.6963 108.358 37.94C108.657 38.576 109.023 39.8901 109.732 39.5283C109.118 38.4158 108.505 37.3031 107.892 36.1906ZM17.1362 113.243C16.6192 113.009 15.9277 115.026 15.8356 115.436C15.5786 116.577 15.7936 117.344 16.6872 118.083C16.3174 116.451 16.7604 114.826 17.1362 113.243ZM136.48 26.8668C135.837 26.0132 134.908 24.4284 133.609 25.2674C133.096 25.5989 132.701 26.6615 132.385 27.1806C131.888 27.9955 131.407 28.78 131.029 29.6573C131.671 29.3873 132.05 28.8002 132.624 28.4793C133.016 28.2601 133.374 28.239 133.752 28.0792C134.588 27.7262 135.732 27.3801 136.48 26.8668ZM31.6503 110.969C31.9982 112.362 32.3199 113.75 32.5891 115.161C32.7711 116.115 33.3828 117.464 33.0636 118.398C33.8905 118.284 34.7174 118.17 35.5443 118.057C34.9309 116.629 34.6081 115.105 34.4259 113.563C34.3144 112.619 34.4574 112.35 33.762 111.825C33.2235 111.418 32.2754 111.223 31.6503 110.969ZM27.0767 57.6688C28.6666 59.2963 30.057 61.1515 31.7466 62.668C32.6245 63.456 33.5244 64.2219 34.4254 64.982C35.1894 65.6264 36.4044 67.0471 37.3987 67.2443C37.5216 66.7252 37.8122 65.8746 37.7344 65.3422C38.0245 65.0352 37.9344 64.8111 37.4642 64.6694C37.1764 64.4432 36.892 64.2133 36.6103 63.9792C35.5051 63.0357 34.4593 62.0109 33.412 61.0018C32.371 59.9988 31.408 58.9494 30.5043 57.8161C30.0282 57.2193 29.7497 56.621 28.9689 56.4455C28.0413 56.2372 27.7326 56.9769 27.0767 57.6688ZM58.8513 118.1C58.8064 118.985 60.933 119.527 61.5791 119.58C63.3257 119.723 64.4599 118.94 65.0609 117.395C66.3122 114.18 68.3156 111.347 69.1534 107.966C69.402 106.963 69.6172 106.506 68.7315 105.995C68.368 105.786 67.4215 105.318 67.0263 105.585C66.6501 105.839 66.3419 106.982 66.1001 107.397C65.7159 108.057 65.2792 108.685 64.8622 109.323C62.9115 112.31 60.9457 115.218 58.8513 118.1ZM33.613 73.821L41.7777 78.5957C42.1182 77.3935 42.2748 76.1402 42.5939 74.9286C42.8212 74.0674 43.4057 72.851 43.3688 72.095C43.3136 70.9663 42.4589 69.4679 42.0862 68.392C41.6218 67.0513 41.1574 65.7102 40.693 64.3694C40.0641 64.9844 39.34 65.4141 39.3323 66.2154C39.328 66.6735 39.6265 66.9593 39.4534 67.4783C39.3319 67.8423 38.8153 68.3257 38.5657 68.5962C37.8368 69.3872 37.8596 69.4268 37.0936 68.6871C35.9334 70.3985 34.7731 72.1097 33.613 73.821ZM42.5955 96.2079C42.7124 95.0576 42.8624 93.9548 43.1154 92.8261C43.271 92.1326 43.9279 90.7086 43.7118 90.0554C43.553 89.5754 42.6091 89.1579 42.2414 88.8967C41.1779 88.141 40.1392 87.3459 39.0863 86.5748C38.163 85.8985 37.2259 85.2385 36.32 84.538C35.4809 83.8894 34.8475 83.0825 33.8321 82.8044C32.9437 82.561 31.8164 82.7199 30.8961 82.6886C29.6612 82.6466 28.4072 82.6327 27.1735 82.6944C23.0332 82.9017 18.395 82.6055 14.4118 83.7865C12.5292 84.3446 11.3156 84.6732 10.2632 86.4969C9.04613 88.6061 8.00628 90.7977 7.12096 93.076C6.99171 93.4088 6.69952 93.8887 6.71069 94.2522C6.732 94.9464 6.97486 94.7864 7.62575 95.1823C8.32906 95.6099 9.01846 96.1176 9.69031 96.5992C10.8424 97.425 12.2727 98.2873 13.468 98.9313C14.9061 99.7062 16.3548 100.401 17.8176 101.181C18.7446 101.676 19.704 102.08 20.6132 102.623C21.6003 103.214 22.7054 103.382 23.7695 103.842C27.0644 105.269 30.2531 106.588 33.4865 108.215C36.6424 109.804 39.8347 111.147 43.0637 112.548C47.237 114.359 51.369 116.034 55.7214 117.287C56.0401 117.379 56.71 117.702 57.0247 117.687C57.6976 117.656 57.8501 117.153 58.2543 116.586C59.0487 115.472 59.8139 114.337 60.5738 113.199C62.2219 110.729 63.8336 108.232 65.608 105.854C60.5798 104.42 55.9175 101.772 51.4974 99.0551C51.3092 99.5959 51.1593 100.794 50.5561 100.975C49.8101 101.199 49.2682 100.142 48.9339 99.6561C48.6175 100.462 48.0761 103.18 47.0634 103.12C45.6641 103.038 45.9111 100.786 45.7369 99.892C44.9655 100.94 44.0716 102.146 43.0233 100.534C42.2968 99.4159 42.3774 97.4542 42.5955 96.2079ZM100.854 83.3633C100.206 83.156 99.5616 82.9718 98.9273 82.7396C98.7606 82.3778 98.4837 82.2681 98.0969 82.4105C97.7799 82.4395 97.4716 82.3994 97.172 82.2899C95.8473 82.0584 94.3801 81.7578 93.1144 81.3673C91.9872 81.0194 90.9243 80.7121 89.7791 80.4507C89.099 80.2957 86.0699 79.4191 85.6222 79.935C85.4845 80.0937 85.7213 82.0178 85.688 82.3608C85.6287 82.9706 85.5993 83.9744 85.2217 84.4821C85.0768 84.6769 84.5251 84.8927 84.3257 85.0444C83.6779 85.5371 83.0793 86.1494 82.4349 86.6602C81.0279 87.7755 79.6576 88.9329 78.2219 90.0117C77.2073 90.774 76.046 91.1514 74.919 91.7053C75.7208 91.8521 77.2898 91.0628 78.0992 90.8181C79.1475 90.501 80.1761 90.1486 81.2483 89.8582C83.4466 89.2628 85.6988 88.5908 87.933 87.9569C89.3051 87.5678 90.7545 87.1622 92.0847 86.6468C92.6747 86.4182 93.1379 85.8866 93.5277 86.4276C93.8386 86.8595 93.4624 87.4278 93.2233 87.7479C91.8286 89.6147 88.0408 90.069 86.0135 90.8435C83.7255 91.7173 81.4679 92.6376 79.1121 93.2515C76.3607 93.9685 73.3742 94.5171 70.8103 95.7764C68.6832 96.8209 66.2735 97.2257 64.012 97.8388C61.8881 98.4145 59.3695 98.5298 57.3621 99.5072C58.2292 100.207 59.5121 100.573 60.5227 101.044C61.7599 101.62 63.0099 102.146 64.2335 102.757C64.7543 103.017 65.2993 103.403 65.8263 103.619C66.4952 103.893 66.4095 103.749 67.1004 103.693C68.1758 103.607 69.6268 103.409 70.5004 104.21C71.5542 105.176 70.8865 106.234 71.0411 107.416C71.1474 108.226 71.2013 108.096 72.081 108.22C72.8907 108.333 73.6995 108.466 74.4982 108.643C75.4843 108.862 76.4935 109.228 77.454 109.544C78.9433 110.035 79.1052 110.612 80.6576 109.979C85.0787 108.177 89.6514 106.695 94.1008 104.99C96.1502 104.205 98.2084 102.69 100.138 101.552C102.613 100.091 104.85 98.5114 106.526 96.08C107.29 94.9718 108.086 93.1 107.926 91.7241C107.782 90.4938 106.892 89.1262 106.319 88.0682C105.586 86.7175 104.941 86.1933 103.82 85.296C103.041 84.6723 101.837 83.355 100.854 83.3633ZM51.6165 93.8185C51.6851 94.4978 51.297 97.2974 51.6815 97.7281C52.3389 98.4646 53.9514 97.605 54.5754 97.3857C56.6021 96.6731 58.9578 96.829 61.0217 96.2647C63.0239 95.7173 64.9822 95.0081 66.9956 94.4505C68.0756 94.1511 69.1007 93.6821 70.163 93.3258C71.3457 92.9291 72.6659 92.7117 73.7626 92.1149C73.6268 91.7698 68.8814 92.5999 68.342 92.6447C66.4688 92.8003 64.7051 92.5048 62.8589 92.1576C58.7865 91.3915 54.9493 89.575 50.9295 88.3966C51.1179 90.2926 56.335 90.6701 55.7135 92.8704C55.5401 93.4837 53.2062 94.4862 52.4343 94.1014C50.8661 93.3193 52.7844 92.2188 53.5661 91.9444C52.3762 91.2467 51.2375 90.4898 50.1515 89.63C48.9887 88.7096 48.4884 87.4184 47.8652 86.0859C46.5625 83.3002 43.4798 81.6796 41.0852 79.9454C38.4959 78.0701 35.7389 76.476 33.1511 74.605C32.6893 74.271 32.4736 74.4243 32.3114 73.8145C32.1378 73.1614 32.7756 72.3316 33.0851 71.8336C33.8988 70.524 34.8465 69.2846 35.9214 68.1884C34.5352 67.2235 33.0379 66.4271 31.738 65.335C30.4204 64.2279 29.33 62.8765 28.1676 61.6091C26.3107 65.7415 23.7081 69.5743 21.6644 73.6269C20.8571 75.2276 20.4303 77.6486 21.658 79.1997C22.95 80.8322 25.3592 80.1967 27.1829 80.2832C29.1078 80.3746 30.8636 80.5977 32.7622 81.156C33.621 81.4087 34.4029 81.334 35.2284 81.7397C36.1966 82.2154 37.1488 82.8264 38.0699 83.3903C39.8812 84.4992 41.5735 85.8873 43.284 87.1526C43.9856 87.6715 47.7901 90.7478 44.7809 90.2729C44.7809 93.1516 44.2878 96.0998 44.0289 98.9647C44.7426 98.0932 45.2515 97.2074 45.6832 96.1603C45.94 95.5373 45.9433 93.9476 46.799 94.3244C48.0864 94.8912 47.0837 99.0559 47.0837 100.183C47.4027 99.5522 47.6261 98.8733 47.8557 98.2053C48.0297 97.6993 48.2471 96.2644 48.6101 95.9249C49.8252 94.789 49.9956 97.887 49.9956 98.5335C50.3892 97.3915 50.4615 96.1726 50.5011 94.9659C50.5165 94.4899 50.4015 93.7491 50.5191 93.2886C50.7147 92.5209 50.6915 92.571 51.4775 92.2465C51.5239 92.7704 51.5703 93.2945 51.6165 93.8185ZM89.1549 118.113C89.2513 119.087 89.6198 119.792 88.9937 120.668C90.204 120.579 91.3956 120.471 92.608 120.502C93.5814 120.527 95.0371 120.755 95.9453 120.328C96.3154 120.155 96.4412 120.454 96.6314 120.122C96.8121 119.807 96.3877 118.76 96.3367 118.5C96.0919 117.254 95.9726 115.976 95.7502 114.723C95.5976 113.861 95.149 112.166 95.7129 111.352C96.5424 110.154 96.9076 111.842 97.1237 112.591C97.8354 115.06 97.7943 117.405 97.7943 119.941C98.8663 119.941 100.275 119.463 101.309 119.174C102.735 118.775 104.257 118.366 105.639 117.845C106.942 117.355 108.09 116.639 108.914 115.486C109.53 114.624 110.897 112.498 110.557 111.545C110.141 110.376 108.157 109.572 107.097 109.444C105.722 109.277 104.313 109.56 102.906 109.678C101.399 109.805 99.9381 110.148 98.448 110.313C97.0008 110.473 95.0584 110.967 93.6525 110.597C93.6159 111.189 94.0995 111.984 94.268 112.586C94.4888 113.376 94.686 114.172 94.8653 114.973C95.0572 115.829 96.2456 118.909 95.1648 119.525C93.8962 120.248 93.2907 117.153 93.1328 116.398C92.756 114.599 92.4322 112.802 92.8266 110.994C91.2074 110.695 89.2546 111.138 87.5846 111.256C88.2068 113.497 88.6082 115.844 89.1549 118.113ZM19.4123 119.087C19.9754 119.343 20.7491 119.206 21.3612 119.255C22.3177 119.332 23.284 119.509 24.2468 119.477C25.716 119.429 27.2562 119.239 28.7266 119.067C27.8878 117.52 27.3789 116.056 27.2742 114.282C27.2366 113.646 26.9061 109.695 28.0552 109.864C28.6097 109.946 28.4919 113.319 28.5995 113.94C28.7559 114.842 28.9577 115.764 29.2033 116.647C29.3816 117.287 29.9879 118.245 29.8326 118.938C30.5739 118.815 31.3153 118.692 32.0568 118.569C31.4803 117.394 31.0592 116.34 30.8434 115.029C30.739 114.396 30.8056 113.609 30.6033 113.008C30.4757 112.629 30.1849 112.273 30.1461 111.955C30.1012 111.588 30.4938 110.688 30.3485 110.362C30.2059 110.042 29.2126 109.746 28.8646 109.57C27.9053 109.084 27.3431 108.961 26.2681 109.24C24.1944 109.779 20.9272 110.162 19.3807 111.615C17.8486 113.056 17.291 117.913 19.4123 119.087ZM109.976 48.8817C110.55 48.8154 111.119 48.7744 111.696 48.744C110.853 47.5308 110.087 46.2627 109.388 44.9573C109.045 44.3178 108.722 43.6682 108.412 43.0114C108.056 42.2579 108.066 41.7659 107.294 41.6161C106.224 41.4088 104.794 41.823 103.693 41.7759C102.843 41.7393 100.935 40.9212 100.25 41.2178C100.874 42.5266 100.373 44.5631 100.397 45.972C100.422 47.3731 100.252 48.7275 100.011 50.1091C101.469 50.1091 103.295 49.5941 104.767 49.364C106.482 49.0961 108.23 49.0822 109.976 48.8817ZM86.8201 120.809C87.382 120.735 87.9162 120.712 88.4834 120.712C87.2055 118.594 86.2406 116.224 86.2297 113.7C86.2284 113.369 86.6166 111.472 86.4882 111.314C86.2377 111.007 85.199 111.249 84.9144 111.278C83.7506 111.397 82.4569 111.388 81.3612 111.817C80.6051 112.113 80.5969 111.934 80.2963 112.844C80.1184 113.383 79.9905 113.997 79.9871 114.563C79.9799 115.707 80.3365 117.044 80.7975 118.074C81.2364 119.054 81.9299 120.105 82.8839 120.632C83.9828 121.239 85.5314 120.878 86.8201 120.809ZM98.439 42.0976C98.218 41.2535 98.3136 41.444 97.5788 41.3392C97.4241 41.3173 95.7411 41.3529 95.6444 41.4538C95.5332 41.5702 95.5756 43.2888 95.561 43.4855C95.5112 44.1596 95.4374 44.832 95.3656 45.504C95.0742 48.2321 94.5213 50.8731 94.1068 53.5787C95.1311 52.9287 96.6115 53.815 97.4865 53.1113C98.178 52.5553 98.0743 50.776 98.1259 49.991C98.2985 47.3634 98.3574 44.7294 98.439 42.0976ZM135.426 38.9117C135.333 39.063 135.241 39.2144 135.149 39.3657C135.507 39.6002 137.601 37.2147 138.066 36.7879C138.686 36.2196 139.668 35.4608 139.947 34.6298C140.272 33.6643 139.953 32.1399 139.874 31.1415C139.818 30.4269 139.937 29.4387 139.368 28.9394C138.843 28.4801 137.552 28.4924 136.931 28.5907C135.068 28.8857 133.948 30.4526 133.007 31.9457C133.962 31.8256 137.329 30.2538 137.72 31.1038C138.288 32.3389 134.752 33.4431 134.402 34.5268C135.126 34.7882 136.722 33.7743 136.273 35.4613C136.197 35.6974 136.063 35.8928 135.873 36.0477C135.542 36.1674 135.464 36.3929 135.638 36.7244C135.49 37.3852 135.52 38.2212 135.426 38.9117ZM156.87 98.717C156.88 99.1175 156.916 99.5003 157.236 99.7833C157.945 97.4843 158.167 95.1842 158.461 92.7934C158.755 90.4021 159.069 87.9513 159.115 85.5621C159.167 82.8844 158.92 79.9716 158.497 77.326C158.165 75.2578 157.909 72.7128 156.703 70.9526C157.388 75.5143 157.175 79.8392 156.713 84.4169C156.468 86.8476 156.122 89.2595 155.964 91.7007C155.922 92.3455 155.908 92.998 155.854 93.6415C155.821 94.0207 155.454 94.7391 155.451 94.9253C155.433 95.9587 156.515 97.768 156.87 98.717ZM120.44 95.1641C121.009 96.5041 121.656 97.8241 121.998 99.2491C122.358 100.754 122.203 102.155 122.261 103.68C122.357 106.21 122.158 108.724 122.193 111.258C122.223 113.417 122.142 115.522 122.163 117.658C122.176 119.01 122.104 120.356 122.108 121.707C122.108 121.703 122.161 122.919 122.07 122.981C121.662 123.258 121.216 122.864 121.091 122.485L119.883 123.884C120.516 123.722 121.296 123.381 121.947 123.351C122.196 123.258 122.445 123.255 122.692 123.343C122.938 123.495 123.12 123.707 123.238 123.979C124.945 124.351 125.969 122.797 126.276 121.408C126.941 118.393 126.701 115.418 126.653 112.375C126.549 105.764 127.576 99.1927 127.479 92.5814C127.46 91.3021 127.412 90.0377 127.6 88.7608C127.949 86.3886 128.464 88.56 128.547 89.6796C128.795 93.0437 129.228 96.515 128.99 99.8999C128.776 102.95 128.796 106.028 128.647 109.087C128.489 112.339 128.235 115.521 128.381 118.775C129.235 118.663 131.981 118.497 132.267 119.724C132.517 120.793 131.513 120.398 130.992 120.352C130.146 120.279 129.321 120.482 128.397 120.312C128.465 121.751 128.659 123.681 127.402 124.653C126.783 125.131 125.759 125.562 125.036 125.844C124.328 126.12 123.129 126.732 122.391 126.699C121.869 126.675 121.668 126.387 121.095 126.433C120.246 126.502 119.51 127.083 118.609 126.603C116.901 125.692 117.741 123.043 118.819 121.982C119.097 121.708 119.41 121.408 119.783 121.275C119.961 121.212 120.703 121.288 120.788 121.193C121.104 120.842 120.71 118.791 120.668 118.402C120.446 116.36 120.205 114.274 120.114 112.222C120.029 110.294 119.934 108.361 119.869 106.432C119.855 106.012 120.037 105.148 119.865 104.781C119.578 104.17 118.323 103.782 117.778 103.498C118.264 108.36 118.977 113.587 117.22 118.218C116.871 119.138 116.48 120.45 115.595 120.962C114.761 121.444 112.798 121.376 111.799 121.434C110.725 121.495 109.673 121.239 109.081 120.207C108.615 119.395 108.895 118.421 109.851 118.067C110.423 117.856 110.535 117.992 111.036 118.244C111.145 118.424 111.221 118.619 111.266 118.826H111.651C112.174 119.065 114.262 119.331 114.836 118.951C115.502 118.511 115.646 117.32 115.93 116.612C116.457 115.298 116.597 114.231 116.788 112.826C117.087 110.626 116.784 108.076 116.79 105.785C116.791 105.139 116.794 104.494 116.795 103.848C116.796 102.874 116.879 102.88 116.335 102.178C115.516 101.12 114.582 100.04 113.704 99.0261C114.18 101.988 113.985 105.106 113.796 108.057C113.69 109.715 113.471 111.403 113.371 113.039C113.34 113.53 113.686 114.885 113.127 115.103C112.561 115.323 111.856 114.295 111.628 113.924C110.379 116.471 108.889 118.929 106.313 120.247C104.989 120.925 103.609 121.231 102.164 121.497C100.825 121.743 99.5873 122.192 98.2672 122.404C95.5347 122.843 93.0179 122.905 90.2683 122.809C87.6742 122.719 85.1902 123.209 82.6044 122.592C81.5951 122.351 80.5754 121.909 79.8855 121.119C79.5091 120.688 79.3425 120.009 78.9629 119.612C78.8773 119.097 78.5815 118.939 78.0751 119.136C77.7572 119.15 77.4404 119.139 77.1248 119.103C74.5312 118.964 71.6489 119.119 69.1357 118.362C68.1818 118.074 67.1169 117.6 67.5928 116.379C68.0088 115.312 69.1565 115.636 70.0977 115.73C72.8317 116 75.523 116.495 78.2963 116.743C78.2071 115.261 78.284 113.749 78.852 112.363C76.928 112.116 74.9334 111.743 73.1028 111.115C72.5375 110.921 71.9748 110.72 71.4139 110.512C70.4896 110.17 70.6818 110.082 70.1464 110.678C69.4736 111.428 69.0618 112.992 68.5744 113.898C68.0259 114.917 67.4997 115.924 67.0375 116.988C66.6001 117.995 66.2739 119.344 65.6073 120.211C64.1412 122.12 60.7551 122.285 58.7624 121.536C57.7863 121.168 57.434 121.111 56.8424 120.216C56.1942 119.236 56.0332 119.178 54.8392 119.045C52.683 118.805 50.648 118.251 48.6281 117.487C46.4941 116.68 44.3029 116.05 42.1751 115.179C40.1832 114.362 38.2581 113.542 36.1971 112.905C35.9525 114.494 36.9659 116.287 36.9659 117.926C38.1651 117.803 39.2833 117.696 40.472 117.501C40.8958 117.431 43.5662 116.818 43.8268 117.18C44.9129 118.687 39.9711 119.396 39.1987 119.596C36.7236 120.234 34.1996 120.828 31.7088 121.322C29.1664 121.826 26.6879 122.328 24.1071 122.418C19.7399 122.571 13.7162 122.313 13.9247 116.445C14.0065 114.146 14.9327 111.65 16.7051 110.151C17.8079 109.218 19.183 108.705 20.5312 108.283C21.0293 108.126 23.6533 107.762 23.7331 107.561C22.9937 107.019 21.7299 106.878 20.8526 106.46C20.0163 106.062 19.1337 105.914 18.2776 105.512C16.5669 104.71 14.9147 103.729 13.3329 102.738C12.0749 101.949 10.803 101.078 9.64494 100.14C8.72472 99.395 7.84283 98.6786 7.10721 97.8271C6.72221 97.3815 6.04072 96.9868 5.73238 96.6031C4.64957 95.2554 5.7915 92.5737 6.25264 91.0046C6.92622 88.7112 7.82513 86.2709 9.1508 84.2842C10.3699 82.4571 11.7291 81.2263 13.9159 80.7983C15.9342 80.4033 17.9637 80.2781 20.028 80.1672C19.6811 78.8177 19.1928 77.8653 19.3167 76.3853C19.4336 74.9892 20.1228 73.6021 20.6637 72.3307C21.6694 69.9673 22.6181 67.654 23.9935 65.478C24.7494 64.2822 25.5984 63.147 26.4236 62.0011C26.5566 61.8163 27.3837 60.9712 27.3521 60.7332C27.3206 60.4966 26.4901 59.7762 26.3629 59.6112C25.5089 58.5023 24.9185 57.3084 25.9214 56.1217C26.4442 55.503 27.9815 54.2535 28.7214 55.0396C29.5215 53.3862 30.9209 52.2589 32.0104 50.8523C33.3687 49.0984 34.6657 47.3177 35.9372 45.4806C37.2033 43.6515 38.2374 41.6864 39.9156 40.2123C41.7858 38.5696 43.5463 38.7117 45.8432 39.4139C45.9744 38.5078 46.1567 38.6283 47.0137 38.3258C47.6624 38.0968 48.2928 37.825 48.9306 37.5664C49.6085 37.2913 50.2946 37.1352 50.9876 36.919C51.9108 36.6311 52.0495 36.7252 52.1995 35.4991C52.381 34.0176 51.7611 32.4512 51.3613 31.0557C51.164 30.3671 51.0268 29.51 50.5829 29.0469C50.1812 28.628 49.4691 28.4372 49.0298 27.9741C45.2448 23.9836 45.1851 15.4635 49.217 11.7548C50.0006 11.034 50.6468 10.0642 51.6222 9.57744C52.6932 9.04289 54.1058 8.61065 55.2854 8.35875C57.7167 7.83985 60.4435 8.00455 62.3654 9.75252C63.3133 10.6146 63.8913 11.9848 64.2144 13.2087C64.5231 14.3779 64.457 16.354 63.2868 14.5471C62.549 13.4075 61.9079 12.2453 60.6589 11.6815C59.5427 11.1779 58.1797 10.906 56.9637 11.0129C54.0979 11.2646 51.7755 12.1252 49.7917 14.2945C47.5983 16.6931 47.4867 20.5225 47.9595 23.5725C48.3762 22.6704 48.6584 21.242 49.8264 21.0697C50.7999 20.9261 52.3346 22.1974 51.8121 23.2918C49.4414 22.6737 48.7481 26.3402 50.7981 26.561C51.4187 26.6278 52.2047 25.4978 52.7762 25.761C53.8449 26.2528 52.4127 27.9477 52.1303 28.5058C51.9802 28.6002 51.8302 28.6946 51.6801 28.7892C51.8279 29.1404 51.9771 29.4911 52.1279 29.841C52.3106 30.2873 52.4845 30.7347 52.645 31.19C53.0357 32.2979 53.4408 33.4403 53.6763 34.5945C53.9155 35.768 54.0398 37.1384 53.4742 38.2409C52.8525 39.4528 52.2669 39.3037 51.7893 38.1509C50.539 38.9569 49.2819 39.8163 47.8122 40.1343C49.3534 42.7787 51.3486 45.0521 54.3485 45.8839C56.891 46.5889 60.0915 46.5631 62.5175 45.3968C65.035 44.1865 66.4203 41.3579 66.1205 38.5436C66.0234 37.6322 65.5047 34.4664 66.7386 36.7564C67.4153 38.0124 67.4649 40.0497 67.3106 41.4269C66.5727 48.0149 60.043 50.4795 54.4126 48.8936C51.5242 48.0799 49.4428 45.902 47.8932 43.3382C47.5317 42.7404 47.2011 42.1234 46.8781 41.5031C46.749 41.2552 46.6354 40.9091 46.4632 40.6917C45.7882 39.8396 46.4513 40.3144 45.7348 40.2077C44.6258 40.0428 42.8808 40.9114 42.0574 41.5996C39.8231 43.4665 38.5856 46.4531 36.8709 48.8061C35.0452 51.311 32.7266 53.5404 30.4008 55.539C33.0317 58.2951 35.6624 61.0508 38.2933 63.8067C38.8368 63.1915 39.8699 61.7852 40.0144 60.9626C40.0992 60.4804 39.7188 58.8935 40.8886 59.5997C41.6784 60.0768 41.9779 62.1182 42.2242 62.9533C42.6048 64.2432 43.2455 65.4578 43.6597 66.7343C44.428 69.1028 45.3745 71.4504 46.1616 73.8357C46.4816 74.8057 47.3941 76.0094 46.5173 76.8307C45.1848 78.0784 44.7886 75.6218 44.4358 74.6834C43.9444 75.3821 44.0081 76.515 43.7548 77.3299C43.6001 77.8277 43.129 78.6026 43.1446 79.093C43.1713 79.9317 43.9157 80.1813 44.5865 80.6499C45.8345 81.5218 47.1151 82.3729 48.2583 83.3884C48.7352 83.812 49.174 84.2406 49.5221 84.7855C49.8259 85.2613 49.9174 86.334 50.2532 86.6651C50.6925 87.0979 52.3164 86.7963 53.1739 86.8905C54.6058 87.048 56.0569 87.5688 57.447 87.9431C59.9069 88.605 62.4369 89.5583 65.0131 89.912C67.5431 90.2593 69.9173 90.0869 72.4388 89.6242C73.8162 89.3715 75.2956 89.0695 76.5525 88.392C78.0002 87.6119 79.2839 86.3638 80.6362 85.4213C81.2414 84.9994 81.8605 84.6006 82.4794 84.2007C83.3065 83.6663 83.0903 83.782 83.1441 82.9329C83.2065 81.9502 83.6076 80.0735 82.9658 79.1988C82.6977 78.8337 81.8753 78.5667 81.4881 78.3011C80.9252 77.9146 80.4204 77.4656 79.8171 77.1547C79.1585 76.8152 79.139 77.084 78.8334 76.2513C78.5557 75.4951 78.3725 74.703 78.1176 73.9389C76.9512 70.4439 76.6499 66.8943 76.1666 63.2449C75.942 61.5499 75.3911 59.2433 76.015 57.592C76.8827 55.2954 77.6087 58.5073 77.7917 59.3304C78.62 57.8795 79.0959 56.2659 79.9575 54.8334C80.4599 53.9983 80.7057 53.5715 80.9888 52.6564C81.1034 52.2858 81.1493 51.978 81.3916 51.6702C81.9043 51.0192 81.9801 51.3902 82.5131 51.3742C84.1901 51.324 85.8384 51.3681 87.5169 51.4475C88.4445 51.4915 89.3723 51.5147 90.3064 51.5112C90.7616 51.5094 91.2222 51.4867 91.677 51.5135C91.9221 51.5108 92.166 51.5294 92.4086 51.5695C92.9095 51.8086 93.1006 51.6026 92.9822 50.9513C93.4182 50.0184 93.3892 48.5299 93.5435 47.5121C93.6989 46.4877 93.8429 45.4615 93.9729 44.4332C94.0421 43.8835 94.6248 41.8094 94.3156 41.3579C94.0091 40.9102 92.4123 41.0105 91.9398 40.9302C88.7986 40.3962 85.8767 39.0724 82.9387 37.9878C81.4922 37.4539 80.1192 36.7331 78.7319 36.0781C78.0096 35.7371 77.3271 35.0348 76.5659 34.8162C75.6053 34.5402 74.33 34.9814 73.3725 35.1475C71.5482 35.4641 69.7884 35.7413 67.9373 35.8443C67.2833 35.8807 66.0392 36.0683 65.4492 35.6086C64.2639 34.6854 65.6135 34.1456 66.3881 34.029C69.8148 33.5136 73.231 33.2174 76.6838 33.0023C76.8457 32.9923 77.4387 32.869 77.636 32.9327C78.0856 33.0779 77.9043 33.2463 78.1738 33.396C78.6729 33.6734 79.2425 33.8777 79.8759 34.0498C81.6842 34.5409 83.505 35.365 85.3193 36.0125C88.5839 37.1776 92.4843 39.0353 95.7492 38.7087C96.555 38.6282 97.2175 38.5252 98.0599 38.6086C99.0465 38.7066 99.6222 39.2241 100.38 39.3745C101.396 39.576 102.848 39.4246 103.917 39.4633C104.936 39.5002 105.956 39.5486 106.976 39.5486C106.08 37.7071 105.535 35.9781 105.032 34.0004C104.757 32.9218 104.344 31.9421 104.523 30.8062C104.608 30.2701 104.817 29.7663 105.046 29.282C105.391 28.551 105.489 28.7039 105.611 27.8943C105.779 26.78 105.538 25.6051 105.67 24.4874C105.806 23.3405 106.653 22.3181 106.748 21.2216C106.798 20.6382 106.479 20.162 106.575 19.5327C106.66 18.9698 106.986 18.3797 107.279 17.9058C107.96 16.8015 108.79 16.1754 109.942 15.7256C110.868 15.364 112.05 15.0323 112.986 15.6178C113.94 16.2151 113.871 17.4173 114.329 18.2945C115.312 20.1806 117.581 21.8662 119.39 22.8295C121.052 23.7144 122.842 24.2733 124.624 24.8504C125.708 25.2016 126.823 25.4521 127.888 25.8534C128.656 26.1424 129.906 26.8433 130.688 26.4175C131.368 26.0464 132.162 24.9141 132.836 24.3883C133.625 23.7732 134.676 23.1729 135.669 23.7087C136.661 24.2443 136.58 26.2187 137.352 26.59C137.621 26.7193 138.42 26.3403 138.786 26.4001C139.379 26.4964 139.787 26.8714 140.142 27.333C141.468 29.0579 141.879 31.794 141.936 33.9204C141.966 34.9825 141.94 36.3035 141.306 37.2052C140.566 38.2571 139.166 38.2831 138.217 39.0233C137.457 39.6153 136.919 40.5832 136.148 41.2141C135.673 41.6029 135.49 41.3043 135.293 41.9102C135.165 42.3043 135.424 43.0731 135.5 43.4544C135.972 45.8067 136.857 47.9764 137.696 50.2172C138.091 51.2732 138.426 52.3292 138.607 53.4483C138.725 54.1825 138.589 54.8245 138.646 55.5309C138.687 56.0338 138.896 56.4682 138.85 56.9839C138.752 58.0761 138.172 59.0408 137.803 60.0014C137.383 61.0965 137.96 62.993 138.384 64.1256C139.399 66.8389 140.826 69.5802 142.094 72.1873C143.339 74.7482 144.266 77.4755 145.717 79.9357C147.126 82.3249 148.784 84.6644 150.387 86.9241C151.279 88.1811 152.225 89.3767 153.034 90.6951C153.21 90.9834 154.417 93.3742 154.729 93.2914C154.346 89.1192 154.734 84.7801 154.905 80.6107C155.12 75.3916 154.47 70.6639 153.034 65.6819C152.699 64.5172 152.399 63.3254 152.163 62.1352C151.998 61.3018 151.531 60.617 152.677 60.9814C154.574 61.5845 156.244 65.2478 157.209 66.8423C159.369 70.4136 161.174 75.1762 161.416 79.3651C161.654 83.4766 161.449 87.4106 160.946 91.4615C160.698 93.46 160.298 95.6878 159.686 97.5991C159.371 98.5822 158.993 99.6005 158.573 100.543C158.396 100.94 158.007 101.389 157.94 101.826C157.834 102.519 158.331 103.455 158.455 104.139C158.861 106.379 158.954 108.7 158.816 110.973C158.742 112.192 158.577 113.282 158.188 114.428C157.693 115.889 157.923 117.004 158.129 118.51C158.35 120.121 158.561 123.784 156.923 124.699C156.807 124.687 156.691 124.675 156.576 124.663C156.283 124.317 156.023 124.338 155.796 124.724C155.372 124.865 154.959 125.229 154.512 125.386C153.477 125.75 152.36 125.772 151.279 125.932C149.166 126.245 147.059 126.797 144.982 126.864C142.523 126.943 139.957 126.844 137.553 126.403C137.056 126.312 136.475 126.071 135.978 126.025C135.303 125.962 134.829 126.421 134.133 126.313C133.054 126.146 132.372 124.978 132.301 124.02C132.076 120.97 133.731 119.571 136.435 119.029C134.688 116.471 132.676 114.372 132.211 111.086C131.753 107.853 132.746 104.111 134.549 101.521C136.279 99.0345 139.232 97.3721 142.277 98.003C143.69 98.2959 150.358 100.309 149.069 102.593C148.783 101.548 147.026 101.75 146.176 101.6C144.767 101.349 143.359 100.972 141.929 101.049C139.118 101.202 136.4 102.903 135.039 105.478C133.469 108.446 134.185 111.409 136.075 113.943C137.803 116.26 139.584 118.695 141.907 120.368C141.458 121.099 141.621 121.328 140.728 121.197C140.116 121.107 139.543 120.619 138.924 120.497C137.64 120.245 135.619 121.321 134.826 122.397C134.357 123.032 134.375 123.346 135.239 123.738C135.877 124.027 136.881 123.877 137.566 123.94C139.27 124.095 141.006 124.147 142.715 124.141C145.674 124.13 148.426 123.645 151.354 123.33C152.652 123.191 154.009 123.352 155.279 122.863C156.999 122.202 156.578 120.259 156.355 118.685C156.134 117.126 156.359 115.917 156.598 114.373C156.702 113.702 156.896 112.928 156.759 112.253C156.596 111.451 156.303 111.096 156.341 110.202C156.473 107.019 156.083 103.667 155.258 100.595C153.467 93.923 149.092 88.6571 145.444 82.9862C144.413 81.3845 143.33 79.8668 142.51 78.1322C141.732 76.4888 141.197 74.7507 140.426 73.1027C138.725 69.4706 137.111 65.7291 136.117 61.8221C134.991 62.2755 133.777 62.9424 132.57 63.1024C131.202 63.2836 129.739 62.1537 128.876 61.1586C126.908 58.8896 126.46 55.8124 126.607 52.8884C126.65 52.0229 126.703 51.1505 126.854 50.2965C126.953 49.7423 127.59 48.4007 127.445 47.8843C127.29 47.3316 126.384 46.8512 126.106 46.3038C125.751 45.607 125.711 44.7102 125.73 43.9415C125.747 43.2398 126.126 39.804 127.214 41.2083C127.837 42.0128 126.926 45.0461 127.558 45.459C128.127 45.8304 128.911 45.3766 129.501 46.2258C130.138 47.1435 129.797 48.2747 129.574 49.252C129.112 51.2732 128.678 53.4557 128.69 55.5315C128.7 57.4216 129.031 59.8112 131.05 60.5757C132.071 60.9619 132.845 60.6963 133.606 59.977C133.78 59.7717 133.958 59.5697 134.14 59.3709C134.306 59.0782 134.562 59.0418 134.906 59.2619C135.161 59.0548 135.539 57.624 135.666 57.3042C137.23 53.3843 134.764 48.8836 133.86 45.0375C133.307 42.685 132.825 40.3253 133.944 38.0549C134.126 37.6874 134.625 37.368 134.325 36.8406C134.246 36.7019 133.493 36.6369 133.315 36.4757C132.733 35.951 132.854 34.9728 132.854 34.2723C131.51 34.6963 131.123 33.6267 131.298 32.3157C130.295 32.4783 129.598 32.7919 129.227 31.6053C128.898 30.5531 129.395 29.4802 129.725 28.4996C125.086 27.9911 120.075 27.3395 116.377 24.0654C115.466 23.258 114.708 22.2418 114.076 21.1891C113.962 20.9987 113.424 19.6586 113.246 19.5886C112.716 19.3806 112.272 20.4403 111.801 20.7027C111.383 20.9358 110.788 21.0643 110.324 21.2063C109.886 21.3401 108.344 21.3668 108.071 21.599C107.387 22.1798 107.441 25.5374 107.436 26.3166C107.417 29.0004 108.003 31.675 109.086 34.1185C110.107 36.4198 111.668 39.5846 113.708 41.0907C114.224 41.4714 114.688 41.6688 115.342 41.6374C115.809 41.615 116.271 41.2807 116.757 41.4545C117.988 41.8947 117.548 42.7692 116.602 43.1827C113.899 44.365 111.621 41.7659 110.058 39.95C109.6 42.1044 111.723 44.6538 112.846 46.4116C113.561 47.5318 114.269 48.6531 114.949 49.7962C115.444 50.6265 116.415 52.1596 114.689 51.5184C113.857 55.9871 111.572 59.8952 110.405 64.2379C109.207 68.6957 108.163 73.7858 108.163 78.4282C109.075 77.7789 109.535 74.8196 110.762 77.0845C110.895 77.3296 110.853 77.7351 111.028 77.9492C111.27 78.2454 111.561 78.1631 111.932 78.3742C112.52 78.7087 112.899 79.3757 112.373 79.954C113.05 79.793 113.759 79.8751 113.905 80.6937C113.987 81.1532 113.329 83.2817 112.838 83.4555C111.342 83.9853 109.682 80.9299 109.277 79.958C108.342 80.9176 107.265 81.6557 106.403 80.1036C105.761 78.9469 106.134 77.197 106.224 75.9379C106.407 73.4014 106.645 70.9273 107.003 68.4152C107.674 63.7046 109.377 59.5152 111.469 55.2752C112.045 54.1082 112.683 52.9136 113.198 51.7195C113.973 49.9179 112.76 50.3429 111.573 50.6045C109.248 51.1172 106.814 51.515 104.465 51.6966C103.239 51.7914 101.668 51.8478 100.49 52.2102C99.6618 52.4651 99.8039 52.2892 99.4712 53.1966C99.3223 53.6026 99.1544 54.0345 98.8919 54.3822C97.5534 56.1562 94.0863 55.8593 92.1716 55.7271C92.2877 54.979 92.4023 54.2305 92.5226 53.4831C91.0486 53.8373 89.2979 54.0839 87.7799 54.0658C86.9626 54.0563 86.0934 53.9289 85.2782 53.8594C84.6772 53.8083 83.5377 53.3725 82.972 53.542C82.3161 53.7387 81.3243 56.1639 80.9492 56.946C80.2451 58.4146 78.9868 60.0462 78.5425 61.5926C78.1485 62.9635 78.9524 65.3288 79.2049 66.6934C79.5698 68.666 79.9023 70.6423 80.5139 72.555C80.9573 73.9417 81.4683 75.8534 82.8297 76.5451C84.1861 77.2345 85.161 77.6222 86.6292 77.482C89.2145 77.2348 91.965 77.6407 94.5174 78.1547C97.1457 78.684 99.5525 78.9223 102.048 79.8656C107.709 82.0053 111.314 88.5968 109.179 94.6352C107.952 98.1083 105.93 100.689 102.963 102.838C101.451 103.933 99.6654 104.821 98.0082 105.665C97.2473 106.052 96.4993 106.522 95.7238 106.867C95.1571 107.118 94.1831 107.697 93.5674 107.761C94.2508 108.093 94.8555 107.782 95.5665 107.679C96.5725 107.532 97.5998 107.501 98.6094 107.373C100.181 107.174 101.729 107.024 103.301 106.825C104.643 106.654 106.157 106.594 107.491 106.79C108.135 106.885 109.105 107.072 109.678 107.389C110.129 107.639 110.543 108.214 111.028 108.499C111.562 106.258 111.312 103.495 111.337 101.191C111.358 99.3112 111.44 97.4725 111.613 95.6011C111.807 93.5081 110.555 91.1279 110.092 89.0779C109.66 87.1593 108.507 84.7277 108.931 82.725C109.466 80.2006 110.867 84.7356 111.059 85.384C111.662 87.4127 112.362 89.3931 113.03 91.3979C113.824 93.7827 114.625 96.0935 115.782 98.3282C116.745 100.188 117.852 102.369 119.831 103.276C119.668 100.541 119.486 98.0094 118.374 95.4879C117.32 93.097 115.713 90.9707 115.01 88.4087C114.661 87.1355 114.61 85.8335 114.592 84.5185C114.581 83.6338 114.62 82.4444 115.548 83.3984C116.284 84.1548 116.427 86.5676 116.749 87.5861C116.904 88.0761 117.119 88.5261 117.29 89.0028C117.367 89.2175 117.887 90.2635 117.887 90.4038C118.423 92.057 119.607 93.6428 120.44 95.1641Z" fill="black"/>
<path fill-rule="evenodd" clip-rule="evenodd" d="M63.6246 34.8937C63.6756 35.5341 64.0388 37.1938 63.5737 37.7006C62.9572 38.3729 62.665 37.5081 62.3984 36.8262C61.8412 35.4013 61.5643 32.6421 62.6653 31.4547C63.8148 30.2147 66.086 30.1813 67.3127 28.9465C67.8051 28.4504 67.7578 28.554 67.7149 27.7784C67.6906 27.3405 67.4137 26.7587 67.2798 26.3651C66.9318 25.3424 66.5501 24.332 66.186 23.3153C65.5499 23.6119 64.6345 24.5266 64.0079 23.7599C63.4286 23.051 64.3923 21.8894 65.0635 21.6821C64.7131 20.8987 63.0622 21.0435 62.7477 19.8927C62.4744 18.8925 63.2595 19.2899 63.4312 18.896C63.6333 18.4325 63.2195 17.8058 63.4324 17.3787C64.1717 15.8957 64.9903 18.6225 65.3585 19.1092C66.0434 20.0145 67.2365 20.2123 67.3415 21.5816C67.4063 22.4246 67.3443 22.8166 67.6839 23.6446C67.9966 24.4068 68.3682 25.1377 68.6304 25.922C69.0252 27.1038 69.634 29.2544 68.8625 30.3988C68.2117 31.364 66.6317 32.0998 65.6042 32.5126C65.0896 32.7191 64.3762 32.845 63.9599 33.2473C63.4166 33.7722 63.5857 34.0948 63.6246 34.8937Z" fill="black"/>
<path fill-rule="evenodd" clip-rule="evenodd" d="M117.009 70.6295C116.892 70.4407 116.774 70.2519 116.657 70.063C115.844 70.9512 114.943 71.3163 114.122 70.1879C113.275 69.0264 113.593 67.2846 113.922 66.0159C114.092 65.3631 114.948 62.7891 115.497 64.75C115.618 65.1827 115.213 66.1464 115.14 66.57C114.996 67.4011 114.882 68.1983 114.984 69.0447C115.937 68.1721 116.404 65.9599 117.371 68.257C117.722 69.09 117.76 70.4618 118.694 69.1965C119.193 68.5208 119.225 67.2735 119.458 66.4774C121.05 66.8667 120.76 69.2746 120.229 70.4477C119.383 72.3158 118.231 71.7142 117.009 70.6295Z" fill="black"/>
<path fill-rule="evenodd" clip-rule="evenodd" d="M122.583 28.7248C123.149 29.6907 122.078 31.4572 121.884 32.4489C122.833 32.3366 125.18 29.9964 125.841 30.3823C127.216 31.1852 124.311 33.9858 123.753 34.3962C119.291 37.676 120.095 28.1889 122.583 28.7248Z" fill="black"/>
<path fill-rule="evenodd" clip-rule="evenodd" d="M116.988 39.4814C118.655 39.0068 120.903 42.0664 119.822 43.5817C119.046 44.6685 118.087 44.047 117.844 43.0902C117.721 42.6022 117.831 42.0142 117.668 41.47C117.469 40.7999 117.202 40.1473 116.988 39.4814Z" fill="black"/>
<path fill-rule="evenodd" clip-rule="evenodd" d="M65.7194 26.2931C66.9872 27.3827 64.3968 30.0393 63.0983 27.9591C62.7412 27.387 62.6762 26.8647 63.2058 26.6534C63.4732 26.5469 64.1038 26.8958 64.4812 26.8341C64.8949 26.7664 65.3444 26.4688 65.7194 26.2931Z" fill="black"/>
<path fill-rule="evenodd" clip-rule="evenodd" d="M61.3634 21.9358C60.8715 21.3083 59.4891 17.4481 61.2021 18.3078C62.0624 18.7396 62.7733 22.0395 61.3634 21.9358Z" fill="black"/>
<path fill-rule="evenodd" clip-rule="evenodd" d="M117.924 104.959C117.875 104.472 117.827 103.985 117.778 103.498C118.411 103.828 119.68 104.153 119.9 104.892C120.313 106.279 118.393 105.169 117.924 104.959Z" fill="black"/>
<path fill-rule="evenodd" clip-rule="evenodd" d="M136.285 46.202C135.908 45.6816 134.737 41.3399 135.753 41.4393C135.931 43.0143 135.968 44.6499 136.285 46.202Z" fill="black"/>
<path fill-rule="evenodd" clip-rule="evenodd" d="M120.44 95.164C119.607 93.6428 118.423 92.057 117.887 90.4036C119.143 91.4436 120.124 93.5681 120.44 95.164Z" fill="black"/>
<path fill-rule="evenodd" clip-rule="evenodd" d="M154.577 91.6375C154.628 92.1889 154.679 92.7401 154.729 93.2914C153.975 93.4905 154.531 91.8194 154.577 91.6375Z" fill="black"/>
<path fill-rule="evenodd" clip-rule="evenodd" d="M117.889 90.4063C117.532 90.0089 117.379 89.5202 117.29 89.0029C117.49 89.4704 117.689 89.9384 117.889 90.4063Z" fill="black"/>
<path fill-rule="evenodd" clip-rule="evenodd" d="M122.206 115.367C122.219 114.877 122.232 114.386 122.245 113.897C122.232 114.387 122.219 114.877 122.206 115.367Z" fill="black"/>
<path fill-rule="evenodd" clip-rule="evenodd" d="M65.8105 35.7636C66.1298 35.8042 66.4493 35.8448 66.7689 35.8854C66.5167 36.0062 65.9227 36.1667 65.8105 35.7636Z" fill="black"/>
<path fill-rule="evenodd" clip-rule="evenodd" d="M129.508 120.516C129.841 120.465 130.174 120.348 130.501 120.536C130.169 120.53 129.839 120.523 129.508 120.516Z" fill="black"/>
<path fill-rule="evenodd" clip-rule="evenodd" d="M120.012 109.433C120.017 109.797 120.021 110.16 120.025 110.522C120.02 110.158 120.016 109.796 120.012 109.433Z" fill="black"/>
<path fill-rule="evenodd" clip-rule="evenodd" d="M126.879 103.779C126.858 104.167 126.837 104.554 126.816 104.941C126.837 104.553 126.858 104.166 126.879 103.779Z" fill="black"/>
<path fill-rule="evenodd" clip-rule="evenodd" d="M122.357 105.296C122.339 104.959 122.321 104.621 122.304 104.285C122.322 104.622 122.339 104.959 122.357 105.296Z" fill="black"/>
<path fill-rule="evenodd" clip-rule="evenodd" d="M132.233 108.27C132.215 108.57 132.198 108.871 132.18 109.17C132.198 108.87 132.215 108.57 132.233 108.27Z" fill="black"/>
<path fill-rule="evenodd" clip-rule="evenodd" d="M72.5621 115.856C72.2388 116.023 71.9156 116.04 71.5934 115.854C71.9165 115.855 72.2393 115.856 72.5621 115.856Z" fill="black"/>
<path fill-rule="evenodd" clip-rule="evenodd" d="M105.653 25.1169C105.657 25.4138 105.662 25.7107 105.667 26.0064C105.662 25.7091 105.657 25.4131 105.653 25.1169Z" fill="black"/>
<path fill-rule="evenodd" clip-rule="evenodd" d="M73.5478 33.2174C73.2166 33.2431 72.8854 33.2686 72.5545 33.2943C72.8855 33.2686 73.2167 33.2431 73.5478 33.2174Z" fill="black"/>
<path fill-rule="evenodd" clip-rule="evenodd" d="M141.939 34.36C141.937 34.067 141.935 33.774 141.934 33.4815C142.087 33.774 142.09 34.0666 141.939 34.36Z" fill="black"/>
<path fill-rule="evenodd" clip-rule="evenodd" d="M63.6241 34.8937C63.6091 34.5824 63.5942 34.2712 63.5794 33.9605C63.5945 34.2719 63.6093 34.5827 63.6241 34.8937Z" fill="black"/>
<path fill-rule="evenodd" clip-rule="evenodd" d="M144.982 126.864C145.205 126.865 145.429 126.867 145.651 126.868C145.426 126.867 145.204 126.865 144.982 126.864Z" fill="black"/>
<path fill-rule="evenodd" clip-rule="evenodd" d="M56.9682 8.15242C56.6741 8.17808 56.38 8.20375 56.0859 8.22924C56.38 8.20375 56.6741 8.17808 56.9682 8.15242Z" fill="black"/>
<path fill-rule="evenodd" clip-rule="evenodd" d="M85.9733 122.99C86.1629 122.99 86.3525 122.99 86.5398 122.99C86.3496 122.99 86.1615 122.99 85.9733 122.99Z" fill="black"/>
<path fill-rule="evenodd" clip-rule="evenodd" d="M115.342 41.6374C115.054 41.608 114.767 41.5785 114.479 41.5489C114.767 41.5785 115.054 41.608 115.342 41.6374Z" fill="black"/>
<path fill-rule="evenodd" clip-rule="evenodd" d="M128.412 122.477C128.429 122.235 128.447 121.993 128.464 121.751C128.447 121.994 128.429 122.236 128.412 122.477Z" fill="black"/>
<path fill-rule="evenodd" clip-rule="evenodd" d="M97.2861 38.5338C97.0031 38.5311 96.72 38.5287 96.4371 38.5262C96.7215 38.3578 97.0041 38.406 97.2861 38.5338Z" fill="black"/>
<path fill-rule="evenodd" clip-rule="evenodd" d="M59.5142 8.23344C59.2289 8.22412 58.9272 8.37617 58.6642 8.14484C58.9477 8.17438 59.2309 8.20391 59.5142 8.23344Z" fill="black"/>
<path fill-rule="evenodd" clip-rule="evenodd" d="M51.808 36.8422C51.5346 36.8679 51.261 36.8936 50.9877 36.919C51.2613 36.8934 51.5346 36.8679 51.808 36.8422Z" fill="black"/>
<path fill-rule="evenodd" clip-rule="evenodd" d="M69.0369 115.605C68.7489 115.636 68.4606 115.667 68.1729 115.697C68.461 115.667 68.749 115.636 69.0369 115.605Z" fill="black"/>
<path fill-rule="evenodd" clip-rule="evenodd" d="M76.2077 33.0399C75.9269 33.0461 75.6458 33.0522 75.3652 33.0584C75.6438 32.9443 75.9226 32.8367 76.2077 33.0399Z" fill="black"/>
<path fill-rule="evenodd" clip-rule="evenodd" d="M122.196 111.631C122.194 111.382 122.192 111.133 122.191 110.884C122.192 111.134 122.194 111.382 122.196 111.631Z" fill="black"/>
<path fill-rule="evenodd" clip-rule="evenodd" d="M154.681 90.5093C154.651 90.8104 154.62 91.1113 154.59 91.4125C154.62 91.1115 154.651 90.8104 154.681 90.5093Z" fill="black"/>
<path fill-rule="evenodd" clip-rule="evenodd" d="M118.229 109.916C118.208 109.659 118.187 109.403 118.166 109.147C118.187 109.404 118.208 109.66 118.229 109.916Z" fill="black"/>
<path fill-rule="evenodd" clip-rule="evenodd" d="M23.7331 107.561C23.6817 107.817 23.4995 107.867 23.1865 107.712L23.7331 107.561Z" fill="black"/>
<path fill-rule="evenodd" clip-rule="evenodd" d="M128.715 107.675C128.699 107.452 128.682 107.229 128.666 107.007C128.683 107.23 128.699 107.452 128.715 107.675Z" fill="black"/>
<path fill-rule="evenodd" clip-rule="evenodd" d="M69.855 33.5766C69.6187 33.6094 69.3822 33.6421 69.1459 33.675C69.3824 33.6421 69.6187 33.6094 69.855 33.5766Z" fill="black"/>
<path fill-rule="evenodd" clip-rule="evenodd" d="M119.87 105.776C119.869 105.995 119.869 106.214 119.868 106.432C119.869 106.213 119.869 105.995 119.87 105.776Z" fill="black"/>
<path fill-rule="evenodd" clip-rule="evenodd" d="M105.61 27.2746C105.611 27.4815 105.611 27.6882 105.611 27.8941C105.611 27.687 105.611 27.4808 105.61 27.2746Z" fill="black"/>
<path fill-rule="evenodd" clip-rule="evenodd" d="M19.3871 75.7319C19.3636 75.9499 19.3401 76.168 19.3168 76.3851C19.3403 76.1668 19.3636 75.9493 19.3871 75.7319Z" fill="black"/>
<path fill-rule="evenodd" clip-rule="evenodd" d="M161 90.7174C160.988 90.5121 160.975 90.3068 160.963 90.1025C160.975 90.3082 160.988 90.5128 161 90.7174Z" fill="black"/>
<path fill-rule="evenodd" clip-rule="evenodd" d="M38.9059 117.814C38.6616 117.81 38.4174 117.807 38.1732 117.802C38.4203 117.629 38.6639 117.666 38.9059 117.814Z" fill="black"/>
<path fill-rule="evenodd" clip-rule="evenodd" d="M67.3476 21.8899C67.3436 21.6841 67.3397 21.4782 67.3357 21.2731C67.4619 21.4768 67.5023 21.6814 67.3476 21.8899Z" fill="black"/>
<path fill-rule="evenodd" clip-rule="evenodd" d="M47.8466 19.2792C47.8634 19.0762 47.8803 18.8732 47.8969 18.6714C47.8801 18.8747 47.8634 19.0769 47.8466 19.2792Z" fill="black"/>
<path fill-rule="evenodd" clip-rule="evenodd" d="M128.573 90.3506C128.564 90.1268 128.555 89.903 128.547 89.6796C128.555 89.9035 128.564 90.1271 128.573 90.3506Z" fill="black"/>
<path fill-rule="evenodd" clip-rule="evenodd" d="M127 101.911C126.994 102.122 126.988 102.333 126.981 102.543C126.987 102.331 126.994 102.121 127 101.911Z" fill="black"/>
<path fill-rule="evenodd" clip-rule="evenodd" d="M98.8882 122.263C99.0413 122.263 99.1943 122.263 99.3455 122.263C99.192 122.263 99.0401 122.263 98.8882 122.263Z" fill="black"/>
<path fill-rule="evenodd" clip-rule="evenodd" d="M24.4158 122.37C24.5686 122.375 24.7212 122.379 24.8721 122.383C24.7188 122.379 24.5672 122.375 24.4158 122.37Z" fill="black"/>
<path fill-rule="evenodd" clip-rule="evenodd" d="M116.795 103.848C115.305 102.671 114.007 100.911 113.704 99.0261C114.345 99.7663 114.883 100.592 115.524 101.332C115.779 101.626 116.091 101.879 116.336 102.178C116.893 102.861 116.795 102.891 116.795 103.848Z" fill="black"/>
<path fill-rule="evenodd" clip-rule="evenodd" d="M111.562 95.891C110.847 94.2067 110.226 92.1636 110.351 90.3052C110.844 91.9924 111.988 94.1118 111.562 95.891Z" fill="black"/>
<path fill-rule="evenodd" clip-rule="evenodd" d="M113.96 105.796C113.948 106.285 113.936 106.774 113.925 107.261C113.937 106.772 113.948 106.284 113.96 105.796Z" fill="black"/>
<path fill-rule="evenodd" clip-rule="evenodd" d="M19.4123 119.087C19.9009 119.117 20.3897 119.147 20.8784 119.176C20.3875 119.183 19.8901 119.305 19.4123 119.087Z" fill="black"/>
<path fill-rule="evenodd" clip-rule="evenodd" d="M113.958 104.18C113.96 104.597 113.962 105.014 113.963 105.43C113.962 105.013 113.96 104.597 113.958 104.18Z" fill="black"/>
<path fill-rule="evenodd" clip-rule="evenodd" d="M93.8804 55.8322C93.6052 55.8176 93.3301 55.8029 93.0571 55.7883C93.333 55.8029 93.6068 55.8176 93.8804 55.8322Z" fill="black"/>
<path fill-rule="evenodd" clip-rule="evenodd" d="M98.3556 45.4606C98.3545 45.1222 98.3535 44.7839 98.3524 44.4462C98.3533 44.7847 98.3545 45.1228 98.3556 45.4606Z" fill="black"/>
<path fill-rule="evenodd" clip-rule="evenodd" d="M92.4475 53.9491C92.435 53.7111 92.311 53.5912 92.0756 53.5896C92.5482 53.3284 92.6723 53.4483 92.4475 53.9491Z" fill="black"/>
<path fill-rule="evenodd" clip-rule="evenodd" d="M106.464 72.774C106.482 72.4729 106.5 72.1718 106.519 71.8714C106.5 72.1727 106.482 72.4734 106.464 72.774Z" fill="black"/>
<path fill-rule="evenodd" clip-rule="evenodd" d="M26.3502 119.3C26.6799 119.276 27.0095 119.253 27.3392 119.229C27.0094 119.253 26.6799 119.276 26.3502 119.3Z" fill="black"/>
<path fill-rule="evenodd" clip-rule="evenodd" d="M95.5876 78.4194L96.5685 78.4124C96.2415 78.4148 95.9146 78.4171 95.5876 78.4194Z" fill="black"/>
<path fill-rule="evenodd" clip-rule="evenodd" d="M104.951 41.726C104.723 41.7279 104.495 41.7298 104.269 41.7316C104.497 41.7296 104.724 41.7279 104.951 41.726Z" fill="black"/>
<path fill-rule="evenodd" clip-rule="evenodd" d="M152.503 123.204C152.789 123.203 153.075 123.201 153.361 123.2C153.075 123.384 152.789 123.38 152.503 123.204Z" fill="black"/>
<path fill-rule="evenodd" clip-rule="evenodd" d="M32.4445 82.7217C32.2507 82.7273 32.0568 82.7329 31.8648 82.7385C32.0594 82.7329 32.2519 82.7273 32.4445 82.7217Z" fill="black"/>
<path fill-rule="evenodd" clip-rule="evenodd" d="M135.425 38.9117C135.609 39.0927 135.368 39.509 135.149 39.3656C135.241 39.2142 135.333 39.063 135.425 38.9117Z" fill="black"/>
<path fill-rule="evenodd" clip-rule="evenodd" d="M45.7888 101.05C45.797 100.794 45.8055 100.537 45.8137 100.282C45.8053 100.538 45.797 100.794 45.7888 101.05Z" fill="black"/>
<path fill-rule="evenodd" clip-rule="evenodd" d="M111.337 101.191C111.35 100.924 111.364 100.657 111.376 100.39C111.363 100.657 111.35 100.924 111.337 101.191Z" fill="black"/>
<path fill-rule="evenodd" clip-rule="evenodd" d="M157.082 73.3443C157.092 73.6118 157.103 73.8793 157.114 74.146C157.103 73.8783 157.092 73.6113 157.082 73.3443Z" fill="black"/>
<path fill-rule="evenodd" clip-rule="evenodd" d="M68.749 103.643C69.0419 103.669 69.3346 103.694 69.6275 103.72C69.3346 103.694 69.0417 103.669 68.749 103.643Z" fill="black"/>
<path fill-rule="evenodd" clip-rule="evenodd" d="M108.91 83.1231C108.924 82.8574 108.938 82.5916 108.953 82.3263C108.938 82.5923 108.924 82.8577 108.91 83.1231Z" fill="black"/>
<path fill-rule="evenodd" clip-rule="evenodd" d="M58.0278 88.1788C58.3197 88.2064 58.6115 88.2338 58.9034 88.2612C58.6115 88.2336 58.3197 88.2062 58.0278 88.1788Z" fill="black"/>
<path fill-rule="evenodd" clip-rule="evenodd" d="M83.8529 111.418C83.6648 111.418 83.477 111.418 83.291 111.418C83.4797 111.418 83.6664 111.418 83.8529 111.418Z" fill="black"/>
<path fill-rule="evenodd" clip-rule="evenodd" d="M100.431 46.4601C100.42 46.7085 100.409 46.9567 100.398 47.2038C100.409 46.9553 100.42 46.7076 100.431 46.4601Z" fill="black"/>
<path fill-rule="evenodd" clip-rule="evenodd" d="M104.595 106.705C104.884 106.495 105.165 106.633 105.447 106.724C105.163 106.718 104.879 106.711 104.595 106.705Z" fill="black"/>
<path fill-rule="evenodd" clip-rule="evenodd" d="M70.8196 35.6386C70.6295 35.6307 70.4396 35.6227 70.2516 35.6139C70.4424 35.6218 70.6309 35.6302 70.8196 35.6386Z" fill="black"/>
<path fill-rule="evenodd" clip-rule="evenodd" d="M116.875 111.272C116.858 111.025 116.841 110.777 116.824 110.531C116.841 110.779 116.858 111.025 116.875 111.272Z" fill="black"/>
<path fill-rule="evenodd" clip-rule="evenodd" d="M101.32 83.3592C101.163 83.3603 101.007 83.3613 100.852 83.3627C101.009 83.3619 101.165 83.3605 101.32 83.3592Z" fill="black"/>
<path fill-rule="evenodd" clip-rule="evenodd" d="M107.925 92.3408C107.925 92.1346 107.926 91.9282 107.926 91.7231C107.926 91.9296 107.925 92.1353 107.925 92.3408Z" fill="black"/>
<path fill-rule="evenodd" clip-rule="evenodd" d="M97.9064 107.467C98.141 107.435 98.3755 107.404 98.6097 107.373C98.3751 107.404 98.1407 107.435 97.9064 107.467Z" fill="black"/>
<path fill-rule="evenodd" clip-rule="evenodd" d="M87.7672 77.4605C88.0212 77.4589 88.2752 77.4572 88.5292 77.4556C88.2761 77.6082 88.0219 77.5795 87.7672 77.4605Z" fill="black"/>
<path fill-rule="evenodd" clip-rule="evenodd" d="M100.927 52.2143C100.78 52.2129 100.633 52.2115 100.488 52.2103C100.636 52.2115 100.781 52.2129 100.927 52.2143Z" fill="black"/>
<path fill-rule="evenodd" clip-rule="evenodd" d="M57.5452 90.4729C57.3937 90.4708 57.2425 90.4687 57.093 90.4664C57.2451 90.4687 57.3951 90.4708 57.5452 90.4729Z" fill="black"/>
<path fill-rule="evenodd" clip-rule="evenodd" d="M28.299 80.32C28.5525 80.3226 28.806 80.3254 29.0595 80.328C28.8044 80.4745 28.5509 80.4783 28.299 80.32Z" fill="black"/>
<path fill-rule="evenodd" clip-rule="evenodd" d="M157.106 80.7489C157.09 80.9466 157.074 81.1446 157.059 81.3413C157.075 81.143 157.09 80.9459 157.106 80.7489Z" fill="black"/>
<path fill-rule="evenodd" clip-rule="evenodd" d="M92.5654 112.542C92.587 112.326 92.6088 112.11 92.6304 111.894C92.6086 112.111 92.587 112.326 92.5654 112.542Z" fill="black"/>
<path fill-rule="evenodd" clip-rule="evenodd" d="M51.5731 86.8042C51.8292 86.8079 52.0854 86.8117 52.3417 86.8154C52.0828 86.9977 51.8281 86.8829 51.5731 86.8042Z" fill="black"/>
<path fill-rule="evenodd" clip-rule="evenodd" d="M109.976 48.8817C110.226 48.8528 110.475 48.824 110.724 48.7952C110.475 48.824 110.226 48.8528 109.976 48.8817Z" fill="black"/>
<path fill-rule="evenodd" clip-rule="evenodd" d="M89.1549 118.113C89.1775 118.34 89.2002 118.567 89.2227 118.793C89.2 118.566 89.1774 118.339 89.1549 118.113Z" fill="black"/>
<path fill-rule="evenodd" clip-rule="evenodd" d="M111.342 103.188C111.341 102.976 111.341 102.764 111.341 102.553C111.341 102.766 111.341 102.977 111.342 103.188Z" fill="black"/>
<path fill-rule="evenodd" clip-rule="evenodd" d="M20.9996 119.206C21.2407 119.239 21.4819 119.271 21.7228 119.304C21.4817 119.271 21.2405 119.239 20.9996 119.206Z" fill="black"/>
<path fill-rule="evenodd" clip-rule="evenodd" d="M25.5235 119.306C25.7615 119.107 26.0032 119.168 26.2457 119.295C26.0049 119.299 25.7641 119.302 25.5235 119.306Z" fill="black"/>
<path fill-rule="evenodd" clip-rule="evenodd" d="M69.023 90.1409C69.2588 90.1113 69.4946 90.0818 69.7301 90.0523C69.4943 90.0818 69.2587 90.1113 69.023 90.1409Z" fill="black"/>
<path fill-rule="evenodd" clip-rule="evenodd" d="M95.2245 120.427C95.4648 120.394 95.7051 120.361 95.9453 120.328C95.7049 120.361 95.4648 120.394 95.2245 120.427Z" fill="black"/>
<path fill-rule="evenodd" clip-rule="evenodd" d="M86.8201 120.809C87.0652 120.777 87.3102 120.744 87.5552 120.712C87.3102 120.744 87.0652 120.777 86.8201 120.809Z" fill="black"/>
<path fill-rule="evenodd" clip-rule="evenodd" d="M100.311 47.9613C100.301 48.1636 100.29 48.3661 100.279 48.5672C100.29 48.3643 100.301 48.1627 100.311 47.9613Z" fill="black"/>
<path fill-rule="evenodd" clip-rule="evenodd" d="M42.5953 96.2079C42.6173 95.9931 42.6392 95.7782 42.6612 95.5641C42.6391 95.7792 42.6173 95.9937 42.5953 96.2079Z" fill="black"/>
<path fill-rule="evenodd" clip-rule="evenodd" d="M98.4194 42.7277C98.4259 42.517 98.4324 42.3062 98.4391 42.0965C98.4328 42.3076 98.4261 42.5177 98.4194 42.7277Z" fill="black"/>
<path fill-rule="evenodd" clip-rule="evenodd" d="M51.6165 93.8186C51.6383 94.0337 51.6601 94.2489 51.6817 94.4631C51.6599 94.2476 51.6381 94.0332 51.6165 93.8186Z" fill="black"/>
<path fill-rule="evenodd" clip-rule="evenodd" d="M52.4285 86.8063C52.677 86.8344 52.9255 86.8624 53.1739 86.8905C52.9254 86.8624 52.6768 86.8344 52.4285 86.8063Z" fill="black"/>
<path fill-rule="evenodd" clip-rule="evenodd" d="M91.9927 118.17C92.1343 118.595 92.0822 119.584 91.6804 119.883C90.8466 120.505 90.7609 119.37 90.5953 118.756C90.1363 117.056 89.397 115.157 89.2087 113.408C89.1509 112.872 89.1196 111.867 89.8133 111.686C90.4829 111.512 90.822 112.597 91.053 113.154C91.6936 114.7 92.0652 116.494 91.9927 118.17Z" fill="black"/>
<path fill-rule="evenodd" clip-rule="evenodd" d="M91.9927 118.17C92.0024 117.951 92.0123 117.731 92.0219 117.512C92.0121 117.732 92.0024 117.951 91.9927 118.17Z" fill="black"/>
</svg>
